<svg width="980" height="240" viewBox="0 0 980 240" fill="none" xmlns="http://www.w3.org/2000/svg">
  <rect x="20" y="20" width="200" height="200" rx="44" fill="#0F172A"/>
  <rect x="54" y="50" width="56" height="34" rx="10" fill="#F97316"/>
  <rect x="116" y="50" width="70" height="34" rx="10" fill="#FB923C"/>
  <rect x="54" y="94" width="70" height="34" rx="10" fill="#F59E0B"/>
  <rect x="130" y="94" width="56" height="34" rx="10" fill="#FDBA74"/>
  <rect x="54" y="138" width="132" height="38" rx="14" fill="#111827" stroke="#38BDF8" stroke-width="5"/>
  <path d="M72 157H97L111 144L126 171L140 151L155 157H172" stroke="#38BDF8" stroke-width="6.5" stroke-linecap="round" stroke-linejoin="round"/>
  <path d="M288 104.42V70H304.62V161H288V118.86H241.74V161H225.12V70H241.74V104.42H288Z" fill="#0F172A"/>
  <path d="M325.709 161V70H392.079V83.92H342.329V108.35H385.299V122.01H342.329V147.08H393.769V161H325.709Z" fill="#0F172A"/>
  <path d="M445.497 161L419.237 70H436.639L454.951 138.89L474.563 70H490.925L510.537 138.89L528.849 70H545.991L519.731 161H501.809L482.717 94.84L463.489 161H445.497Z" fill="#0F172A"/>
  <path d="M593.159 161V70H609.779V147.08H654.999V161H593.159Z" fill="#0F172A"/>
  <path d="M678.433 161V70H695.053V161H678.433Z" fill="#0F172A"/>
  <path d="M774.588 70V84.18H742.348V161H725.728V84.18H693.488V70H774.588Z" fill="#0F172A"/>
  <path d="M795.798 161V70H812.418V108.61H856.598V70H873.218V161H856.598V122.79H812.418V161H795.798Z" fill="#0F172A"/>
  <path d="M911.709 70L936.919 104.68L962.389 70H980L945.679 116.38L981.819 161H963.429L936.919 126.84L910.279 161H891.889L928.159 115.86L894.099 70H911.709Z" fill="#F97316"/>
</svg>
